<svg width="24" height="24" viewBox="0 0 24 24" fill="none" xmlns="http://www.w3.org/2000/svg">
<path d="M0.50311 16.3168C0.702402 14.9966 2.01043 14.1381 3.31268 14.473L6.46405 15.2836C7.03785 15.4312 7.38328 16.013 7.23456 16.5824C7.0857 17.1515 6.49959 17.4935 5.92596 17.3461L4.08709 16.8724C5.56905 19.0578 8.37242 22.203 13.1955 21.8402C15.6235 21.6575 17.7301 20.5933 19.2863 19.3187C20.0625 18.683 20.6856 18.0074 21.131 17.39C21.5891 16.7551 21.8127 16.2456 21.8732 15.9437C21.9889 15.3668 22.5546 14.992 23.1359 15.1068C23.7173 15.2216 24.0944 15.7829 23.9787 16.3597C23.8347 17.0773 23.4242 17.8709 22.8771 18.6293C22.3172 19.4054 21.5637 20.215 20.6525 20.9613C18.8338 22.4508 16.32 23.7414 13.3576 23.9642C7.45991 24.4079 4.05318 20.5954 2.39081 18.182L2.13495 19.8822C2.047 20.4636 1.50117 20.8646 0.91522 20.7777C0.32915 20.6906 -0.0756273 20.1483 0.0118992 19.5668L0.50311 16.3168ZM16.8 15.6C17.4627 15.6 18.0001 16.1375 18.0002 16.8002C18.0002 17.4629 17.4627 18.0004 16.8 18.0004C16.1373 18.0003 15.5998 17.4629 15.5998 16.8002C15.5999 16.1375 16.1373 15.6 16.8 15.6ZM11.4133 8.86267C11.5626 8.24675 12.4377 8.24675 12.5871 8.86267L12.9982 10.557C13.0516 10.7769 13.2236 10.949 13.4435 11.0023L15.1379 11.4135C15.7538 11.5628 15.7538 12.4389 15.1379 12.5883L13.4435 12.9984C13.2236 13.0517 13.0516 13.2238 12.9982 13.4437L12.5871 15.1381C12.4377 15.754 11.5626 15.754 11.4133 15.1381L11.0021 13.4437C10.9488 13.2238 10.7767 13.0517 10.5568 12.9984L8.86249 12.5883C8.82411 12.579 8.78768 12.5667 8.75409 12.5521C8.24884 12.3323 8.28506 11.5535 8.86249 11.4135L10.5568 11.0023C10.7767 10.949 10.9488 10.7769 11.0021 10.557L11.4133 8.86267ZM10.6428 0.0365001C16.5392 -0.407052 19.9448 3.40432 21.6076 5.81775L21.8654 4.11853C21.9534 3.53717 22.4992 3.1361 23.0851 3.22302C23.6714 3.31016 24.0753 3.85323 23.9875 4.43494L23.4973 7.68396C23.298 9.00415 21.9899 9.86265 20.6877 9.52771L17.5353 8.71716C16.9619 8.56945 16.6174 7.98841 16.7658 7.41931C16.9145 6.84993 17.5006 6.50806 18.0744 6.65564L19.9113 7.12732C18.4291 4.94202 15.6268 1.7978 10.8049 2.16052C8.37674 2.34323 6.27033 3.40832 4.71405 4.68298C3.93797 5.31865 3.31473 5.99343 2.86932 6.61072C2.4112 7.24573 2.18671 7.75519 2.12616 8.05701C2.01046 8.63386 1.44578 9.00869 0.864438 8.89392C0.283074 8.77911 -0.0940394 8.21787 0.0216648 7.64099C0.165684 6.92344 0.576161 6.1298 1.12323 5.37146C1.68318 4.59531 2.43666 3.78572 3.34784 3.03943C5.16655 1.54994 7.68042 0.259352 10.6428 0.0365001ZM7.20038 6.00037C7.86304 6.00043 8.40055 6.53789 8.40057 7.20056C8.40057 7.86325 7.86305 8.4007 7.20038 8.40076C6.53765 8.40076 6.00018 7.86328 6.00018 7.20056C6.0002 6.53786 6.53766 6.00037 7.20038 6.00037Z" fill="white"/>
</svg>
