<svg width="24" height="32" viewBox="0 0 24 32" fill="none" xmlns="http://www.w3.org/2000/svg">
<path d="M7.43949 7.83408C7.70916 6.72197 9.29084 6.72197 9.56051 7.83408L10.3025 10.8941C10.3988 11.2912 10.7088 11.6012 11.1059 11.6975L14.1659 12.4395C15.278 12.7092 15.278 14.2908 14.1659 14.5605L11.1059 15.3025C10.7088 15.3988 10.3988 15.7088 10.3025 16.1059L9.56051 19.1659C9.29084 20.278 7.70916 20.278 7.43949 19.1659L6.69748 16.1059C6.6012 15.7088 6.29118 15.3988 5.89413 15.3025L2.83408 14.5605C1.72197 14.2908 1.72197 12.7092 2.83408 12.4395L5.89413 11.6975C6.29118 11.6012 6.6012 11.2912 6.69748 10.8941L7.43949 7.83408Z" fill="url(#paint0_linear_379_375)"/>
<path d="M16.3474 18.5133C16.5133 17.8289 17.4867 17.8289 17.6526 18.5133L18.1092 20.3964C18.1685 20.6407 18.3593 20.8315 18.6036 20.8908L20.4867 21.3474C21.1711 21.5133 21.1711 22.4867 20.4867 22.6526L18.6036 23.1092C18.3593 23.1685 18.1685 23.3593 18.1092 23.6036L17.6526 25.4867C17.4867 26.1711 16.5133 26.1711 16.3474 25.4867L15.8908 23.6036C15.8315 23.3593 15.6407 23.1685 15.3964 23.1092L13.5133 22.6526C12.8289 22.4867 12.8289 21.5133 13.5133 21.3474L15.3964 20.8908C15.6407 20.8315 15.8315 20.6407 15.8908 20.3964L16.3474 18.5133Z" fill="url(#paint1_linear_379_375)"/>
<defs>
<linearGradient id="paint0_linear_379_375" x1="2" y1="16.5" x2="21" y2="16.5" gradientUnits="userSpaceOnUse">
<stop stop-color="#98C6F7"/>
<stop offset="1" stop-color="#EB5B92"/>
</linearGradient>
<linearGradient id="paint1_linear_379_375" x1="2" y1="16.5" x2="21" y2="16.5" gradientUnits="userSpaceOnUse">
<stop stop-color="#98C6F7"/>
<stop offset="1" stop-color="#EB5B92"/>
</linearGradient>
</defs>
</svg>
