<svg width="24" height="32" viewBox="0 0 24 32" fill="none" xmlns="http://www.w3.org/2000/svg">
<path fill-rule="evenodd" clip-rule="evenodd" d="M14.6737 8.80361C12.948 8.3988 11.1519 8.3988 9.42616 8.80361C7.18212 9.32999 5.42994 11.0822 4.90356 13.3262C4.49875 15.052 4.49875 16.848 4.90356 18.5738C4.98419 18.9175 5.09359 19.2497 5.22911 19.5678L6.27087 18.526C8.12998 16.6669 11.1442 16.6669 13.0033 18.526L13.9802 19.5029L13.9973 19.4858C15.3813 18.1019 17.5454 18.022 19.0206 19.1797C19.0892 18.9823 19.148 18.7801 19.1963 18.5738C19.6012 16.848 19.6012 15.052 19.1963 13.3262C18.67 11.0822 16.9178 9.32999 14.6737 8.80361ZM20.1481 21.0427C20.5053 20.4071 20.7772 19.7161 20.9488 18.9849C21.417 16.9887 21.417 14.9113 20.9488 12.9151C20.2663 10.0055 17.9944 7.73368 15.0848 7.05117C13.0887 6.58294 11.0112 6.58294 9.0151 7.05117C6.10548 7.73368 3.83363 10.0055 3.15113 12.9151C2.68289 14.9113 2.68289 16.9887 3.15113 18.9849C3.83363 21.8945 6.10548 24.1663 9.0151 24.8488C11.0112 25.3171 13.0887 25.3171 15.0848 24.8488C17.1212 24.3712 18.8451 23.115 19.9305 21.4066C20.0338 21.3017 20.1067 21.1764 20.1481 21.0427ZM18.1504 20.8194C17.3879 19.988 16.0769 19.9518 15.2701 20.7586L15.253 20.7757L16.6906 22.2132C17.2518 21.833 17.7453 21.3615 18.1504 20.8194ZM14.955 23.0233L11.7305 19.7988C10.5744 18.6426 8.69983 18.6426 7.54366 19.7988L6.20458 21.1379C7.02812 22.0983 8.14726 22.7964 9.42617 23.0964C11.1519 23.5012 12.948 23.5012 14.6737 23.0964C14.7684 23.0742 14.8622 23.0498 14.955 23.0233Z" fill="url(#paint0_linear_379_378)"/>
<path d="M14.3013 11.3529C14.4154 10.8824 15.0846 10.8824 15.1987 11.3529L15.5126 12.6475C15.5533 12.8155 15.6845 12.9467 15.8525 12.9874L17.1471 13.3013C17.6176 13.4154 17.6176 14.0846 17.1471 14.1987L15.8525 14.5126C15.6845 14.5533 15.5533 14.6845 15.5126 14.8525L15.1987 16.1471C15.0846 16.6176 14.4154 16.6176 14.3013 16.1471L13.9874 14.8525C13.9467 14.6845 13.8155 14.5533 13.6475 14.5126L12.3529 14.1987C12.3235 14.1915 12.2959 14.1822 12.2702 14.1711C11.8842 14.0031 11.9118 13.4083 12.3529 13.3013L13.6475 12.9874C13.8155 12.9467 13.9467 12.8155 13.9874 12.6475L14.3013 11.3529Z" fill="url(#paint1_linear_379_378)"/>
<path d="M22 25C22 25.5523 21.5523 26 21 26C20.4477 26 20 25.5523 20 25C20 24.4477 20.4477 24 21 24C21.5523 24 22 24.4477 22 25Z" fill="url(#paint2_linear_379_378)"/>
<path d="M22 7C22 7.55228 21.5523 8 21 8C20.4477 8 20 7.55228 20 7C20 6.44772 20.4477 6 21 6C21.5523 6 22 6.44772 22 7Z" fill="url(#paint3_linear_379_378)"/>
<path d="M4 25C4 25.5523 3.55228 26 3 26C2.44772 26 2 25.5523 2 25C2 24.4477 2.44772 24 3 24C3.55228 24 4 24.4477 4 25Z" fill="url(#paint4_linear_379_378)"/>
<path d="M4 7C4 7.55228 3.55228 8 3 8C2.44772 8 2 7.55228 2 7C2 6.44772 2.44772 6 3 6C3.55228 6 4 6.44772 4 7Z" fill="url(#paint5_linear_379_378)"/>
<defs>
<linearGradient id="paint0_linear_379_378" x1="2" y1="16" x2="22" y2="16" gradientUnits="userSpaceOnUse">
<stop stop-color="#98C6F7"/>
<stop offset="1" stop-color="#EB5B92"/>
</linearGradient>
<linearGradient id="paint1_linear_379_378" x1="2" y1="16" x2="22" y2="16" gradientUnits="userSpaceOnUse">
<stop stop-color="#98C6F7"/>
<stop offset="1" stop-color="#EB5B92"/>
</linearGradient>
<linearGradient id="paint2_linear_379_378" x1="2" y1="16" x2="22" y2="16" gradientUnits="userSpaceOnUse">
<stop stop-color="#98C6F7"/>
<stop offset="1" stop-color="#EB5B92"/>
</linearGradient>
<linearGradient id="paint3_linear_379_378" x1="2" y1="16" x2="22" y2="16" gradientUnits="userSpaceOnUse">
<stop stop-color="#98C6F7"/>
<stop offset="1" stop-color="#EB5B92"/>
</linearGradient>
<linearGradient id="paint4_linear_379_378" x1="2" y1="16" x2="22" y2="16" gradientUnits="userSpaceOnUse">
<stop stop-color="#98C6F7"/>
<stop offset="1" stop-color="#EB5B92"/>
</linearGradient>
<linearGradient id="paint5_linear_379_378" x1="2" y1="16" x2="22" y2="16" gradientUnits="userSpaceOnUse">
<stop stop-color="#98C6F7"/>
<stop offset="1" stop-color="#EB5B92"/>
</linearGradient>
</defs>
</svg>
