<svg width="60" height="60" viewBox="0 0 60 60" fill="none" xmlns="http://www.w3.org/2000/svg">
<path d="M16.0987 9.58521C16.7729 6.80493 20.7271 6.80493 21.4013 9.58521L23.2563 17.2353C23.497 18.228 24.272 19.003 25.2647 19.2437L32.9148 21.0987C35.6951 21.7729 35.6951 25.7271 32.9148 26.4013L25.2647 28.2563C24.272 28.497 23.497 29.272 23.2563 30.2647L21.4013 37.9148C20.7271 40.6951 16.7729 40.6951 16.0987 37.9148L14.2437 30.2647C14.003 29.272 13.228 28.497 12.2353 28.2563L4.58521 26.4013C1.80493 25.7271 1.80493 21.7729 4.58521 21.0987L12.2353 19.2437C13.228 19.003 14.003 18.228 14.2437 17.2353L16.0987 9.58521Z" fill="url(#paint0_linear_40016037_6663)"/>
<path d="M38.3684 36.2832C38.7833 34.5723 41.2167 34.5723 41.6316 36.2832L42.7731 40.991C42.9212 41.6018 43.3982 42.0788 44.009 42.2269L48.7168 43.3684C50.4277 43.7833 50.4277 46.2167 48.7168 46.6316L44.009 47.7731C43.3982 47.9212 42.9212 48.3982 42.7731 49.009L41.6316 53.7168C41.2167 55.4277 38.7833 55.4277 38.3684 53.7168L37.2269 49.009C37.0788 48.3982 36.6018 47.9212 35.991 47.7731L31.2832 46.6316C29.5723 46.2167 29.5723 43.7833 31.2832 43.3684L35.991 42.2269C36.6018 42.0788 37.0788 41.6018 37.2269 40.991L38.3684 36.2832Z" fill="url(#paint1_linear_40016037_6663)"/>
<path d="M46.4293 9.2796C46.7016 8.1568 48.2984 8.1568 48.5707 9.2796L49.3199 12.3691C49.4171 12.7699 49.7301 13.0829 50.1309 13.1801L53.2204 13.9293C54.3432 14.2016 54.3432 15.7984 53.2204 16.0707L50.1309 16.8199C49.7301 16.9171 49.4171 17.2301 49.3199 17.6309L48.5707 20.7204C48.2984 21.8432 46.7016 21.8432 46.4293 20.7204L45.6801 17.6309C45.5829 17.2301 45.2699 16.9171 44.8691 16.8199L41.7796 16.0707C40.6568 15.7984 40.6568 14.2016 41.7796 13.9293L44.8691 13.1801C45.2699 13.0829 45.5829 12.7699 45.6801 12.3691L46.4293 9.2796Z" fill="url(#paint2_linear_40016037_6663)"/>
<path fill-rule="evenodd" clip-rule="evenodd" d="M47.5 9.82773L46.8886 12.3493C46.6442 13.3572 45.8572 14.1442 44.8493 14.3886L42.3277 15L44.8493 15.6114C45.8572 15.8558 46.6442 16.6428 46.8886 17.6507L47.5 20.1723L48.1114 17.6507C48.3558 16.6428 49.1428 15.8558 50.1507 15.6114L52.6723 15L50.1507 14.3886C49.1428 14.1442 48.3558 13.3572 48.1114 12.3493L47.5 9.82773ZM48.7237 8.4624C48.4125 7.1792 46.5875 7.1792 46.2763 8.4624L45.4202 11.9932C45.3091 12.4514 44.9514 12.8091 44.4932 12.9202L40.9624 13.7763C39.6792 14.0875 39.6792 15.9125 40.9624 16.2237L44.4932 17.0798C44.9514 17.1909 45.3091 17.5486 45.4202 18.0068L46.2763 21.5376C46.5875 22.8208 48.4125 22.8208 48.7237 21.5376L49.5798 18.0068C49.6909 17.5486 50.0486 17.1909 50.5068 17.0798L54.0376 16.2237C55.3208 15.9125 55.3208 14.0875 54.0376 13.7763L50.5068 12.9202C50.0486 12.8091 49.6909 12.4514 49.5798 11.9932L48.7237 8.4624Z" fill="url(#paint3_linear_40016037_6663)"/>
<path d="M17.5 57.5C16.1193 57.5 15 56.3807 15 55C15 53.6193 16.1193 52.5 17.5 52.5C18.8807 52.5 20 53.6193 20 55C20 56.3807 18.8807 57.5 17.5 57.5Z" fill="url(#paint4_linear_40016037_6663)"/>
<path d="M5 47.5C3.61929 47.5 2.5 46.3807 2.5 45C2.5 43.6193 3.61929 42.5 5 42.5C6.38071 42.5 7.5 43.6193 7.5 45C7.5 46.3807 6.38071 47.5 5 47.5Z" fill="url(#paint5_linear_40016037_6663)"/>
<path d="M32.5 7.5C31.1193 7.5 30 6.38071 30 5C30 3.61929 31.1193 2.5 32.5 2.5C33.8807 2.5 35 3.61929 35 5C35 6.38071 33.8807 7.5 32.5 7.5Z" fill="url(#paint6_linear_40016037_6663)"/>
<path d="M55 35C53.6193 35 52.5 33.8807 52.5 32.5C52.5 31.1193 53.6193 30 55 30C56.3807 30 57.5 31.1193 57.5 32.5C57.5 33.8807 56.3807 35 55 35Z" fill="url(#paint7_linear_40016037_6663)"/>
<defs>
<linearGradient id="paint0_linear_40016037_6663" x1="2.5" y1="30" x2="57.5" y2="30" gradientUnits="userSpaceOnUse">
<stop stop-color="#98C6F7"/>
<stop offset="1" stop-color="#EB5B92"/>
</linearGradient>
<linearGradient id="paint1_linear_40016037_6663" x1="2.5" y1="30" x2="57.5" y2="30" gradientUnits="userSpaceOnUse">
<stop stop-color="#98C6F7"/>
<stop offset="1" stop-color="#EB5B92"/>
</linearGradient>
<linearGradient id="paint2_linear_40016037_6663" x1="2.5" y1="30" x2="57.5" y2="30" gradientUnits="userSpaceOnUse">
<stop stop-color="#98C6F7"/>
<stop offset="1" stop-color="#EB5B92"/>
</linearGradient>
<linearGradient id="paint3_linear_40016037_6663" x1="2.5" y1="30" x2="57.5" y2="30" gradientUnits="userSpaceOnUse">
<stop stop-color="#98C6F7"/>
<stop offset="1" stop-color="#EB5B92"/>
</linearGradient>
<linearGradient id="paint4_linear_40016037_6663" x1="2.5" y1="30" x2="57.5" y2="30" gradientUnits="userSpaceOnUse">
<stop stop-color="#98C6F7"/>
<stop offset="1" stop-color="#EB5B92"/>
</linearGradient>
<linearGradient id="paint5_linear_40016037_6663" x1="2.5" y1="30" x2="57.5" y2="30" gradientUnits="userSpaceOnUse">
<stop stop-color="#98C6F7"/>
<stop offset="1" stop-color="#EB5B92"/>
</linearGradient>
<linearGradient id="paint6_linear_40016037_6663" x1="2.5" y1="30" x2="57.5" y2="30" gradientUnits="userSpaceOnUse">
<stop stop-color="#98C6F7"/>
<stop offset="1" stop-color="#EB5B92"/>
</linearGradient>
<linearGradient id="paint7_linear_40016037_6663" x1="2.5" y1="30" x2="57.5" y2="30" gradientUnits="userSpaceOnUse">
<stop stop-color="#98C6F7"/>
<stop offset="1" stop-color="#EB5B92"/>
</linearGradient>
</defs>
</svg>
