<svg width="32" height="32" viewBox="0 0 32 32" fill="none" xmlns="http://www.w3.org/2000/svg">
<rect width="32" height="32" rx="16" fill="url(#paint0_linear_40019609_175)"/>
<path d="M11.4395 7.83408C11.7092 6.72197 13.2908 6.72197 13.5605 7.83408L14.3025 10.8941C14.3988 11.2912 14.7088 11.6012 15.1059 11.6975L18.1659 12.4395C19.278 12.7092 19.278 14.2908 18.1659 14.5605L15.1059 15.3025C14.7088 15.3988 14.3988 15.7088 14.3025 16.1059L13.5605 19.1659C13.2908 20.278 11.7092 20.278 11.4395 19.1659L10.6975 16.1059C10.6012 15.7088 10.2912 15.3988 9.89413 15.3025L6.83408 14.5605C5.72197 14.2908 5.72197 12.7092 6.83408 12.4395L9.89413 11.6975C10.2912 11.6012 10.6012 11.2912 10.6975 10.8941L11.4395 7.83408Z" fill="white"/>
<path d="M20.3474 18.5133C20.5133 17.8289 21.4867 17.8289 21.6526 18.5133L22.1092 20.3964C22.1685 20.6407 22.3593 20.8315 22.6036 20.8908L24.4867 21.3474C25.1711 21.5133 25.1711 22.4867 24.4867 22.6526L22.6036 23.1092C22.3593 23.1685 22.1685 23.3593 22.1092 23.6036L21.6526 25.4867C21.4867 26.1711 20.5133 26.1711 20.3474 25.4867L19.8908 23.6036C19.8315 23.3593 19.6407 23.1685 19.3964 23.1092L17.5133 22.6526C16.8289 22.4867 16.8289 21.5133 17.5133 21.3474L19.3964 20.8908C19.6407 20.8315 19.8315 20.6407 19.8908 20.3964L20.3474 18.5133Z" fill="white"/>
<defs>
<linearGradient id="paint0_linear_40019609_175" x1="0" y1="16" x2="32" y2="16" gradientUnits="userSpaceOnUse">
<stop stop-color="#98C6F7"/>
<stop offset="1" stop-color="#EB5B92"/>
</linearGradient>
</defs>
</svg>
