<svg width="24" height="32" viewBox="0 0 24 32" fill="none" xmlns="http://www.w3.org/2000/svg">
<path d="M3.68064 23.681L5.28928 25.2896C5.79727 25.7976 6.51692 26.094 7.19424 26.094C7.87156 26.094 8.59121 25.7976 9.0992 25.2896L19.0754 15.3135L19.5834 10.4875C19.668 9.89486 19.2024 9.38687 18.6097 9.38687C18.5674 9.38687 18.5251 9.38687 18.4827 9.38687L13.6568 9.89486L3.68064 19.871C2.62233 20.9294 2.62233 22.6227 3.68064 23.681ZM14.5881 11.8422L17.4244 11.5458L17.1281 14.3821L12.3165 19.236L11.0042 20.5484L8.42188 17.9661L9.73419 16.6537L14.5881 11.8422ZM5.11995 21.3104L6.98258 19.4054L9.56486 21.9877L7.6599 23.8503C7.49057 24.0197 7.2789 24.062 7.19424 24.062C7.10957 24.062 6.89791 24.0197 6.72858 23.8503L5.11995 22.2417C4.86595 21.9877 4.86595 21.5644 5.11995 21.3104Z" fill="url(#paint0_linear_379_376)"/>
<path d="M4.34738 5.51328C4.51333 4.82891 5.48667 4.82891 5.65262 5.51328L6.10924 7.39639C6.16849 7.64073 6.35927 7.83151 6.60361 7.89075L8.48672 8.34738C9.17109 8.51333 9.17109 9.48667 8.48672 9.65262L6.60361 10.1092C6.35927 10.1685 6.16849 10.3593 6.10924 10.6036L5.65262 12.4867C5.48667 13.1711 4.51333 13.1711 4.34738 12.4867L3.89076 10.6036C3.83151 10.3593 3.64073 10.1685 3.39639 10.1092L1.51328 9.65262C0.828906 9.48667 0.828906 8.51333 1.51328 8.34738L3.39639 7.89076C3.64073 7.83151 3.83151 7.64073 3.89075 7.39639L4.34738 5.51328Z" fill="url(#paint1_linear_379_376)"/>
<path fill-rule="evenodd" clip-rule="evenodd" d="M5 6.24146L4.6739 7.58629C4.54355 8.12384 4.12384 8.54355 3.58629 8.6739L2.24146 9L3.58629 9.3261C4.12384 9.45645 4.54355 9.87616 4.6739 10.4137L5 11.7585L5.3261 10.4137C5.45645 9.87616 5.87616 9.45645 6.41371 9.3261L7.75854 9L6.41371 8.6739C5.87616 8.54355 5.45645 8.12384 5.3261 7.58629L5 6.24146ZM5.65262 5.51328C5.48667 4.82891 4.51333 4.82891 4.34738 5.51328L3.89075 7.39639C3.83151 7.64073 3.64073 7.83151 3.39639 7.89076L1.51328 8.34738C0.828906 8.51333 0.828906 9.48667 1.51328 9.65262L3.39639 10.1092C3.64073 10.1685 3.83151 10.3593 3.89076 10.6036L4.34738 12.4867C4.51333 13.1711 5.48667 13.1711 5.65262 12.4867L6.10924 10.6036C6.16849 10.3593 6.35927 10.1685 6.60361 10.1092L8.48672 9.65262C9.17109 9.48667 9.17109 8.51333 8.48672 8.34738L6.60361 7.89075C6.35927 7.83151 6.16849 7.64073 6.10924 7.39639L5.65262 5.51328Z" fill="url(#paint2_linear_379_376)"/>
<path d="M19.5105 21.385C19.635 20.8717 20.365 20.8717 20.4895 21.385L20.8319 22.7973C20.8764 22.9805 21.0195 23.1236 21.2027 23.1681L22.615 23.5105C23.1283 23.635 23.1283 24.365 22.615 24.4895L21.2027 24.8319C21.0195 24.8764 20.8764 25.0195 20.8319 25.2027L20.4895 26.615C20.365 27.1283 19.635 27.1283 19.5105 26.615L19.1681 25.2027C19.1236 25.0195 18.9805 24.8764 18.7973 24.8319L17.385 24.4895C16.8717 24.365 16.8717 23.635 17.385 23.5105L18.7973 23.1681C18.9805 23.1236 19.1236 22.9805 19.1681 22.7973L19.5105 21.385Z" fill="url(#paint3_linear_379_376)"/>
<path fill-rule="evenodd" clip-rule="evenodd" d="M20 21.9311L19.7554 22.9397C19.6577 23.3429 19.3429 23.6577 18.9397 23.7554L17.9311 24L18.9397 24.2446C19.3429 24.3423 19.6577 24.6571 19.7554 25.0603L20 26.0689L20.2446 25.0603C20.3423 24.6571 20.6571 24.3423 21.0603 24.2446L22.0689 24L21.0603 23.7554C20.6571 23.6577 20.3423 23.3429 20.2446 22.9397L20 21.9311ZM20.4895 21.385C20.365 20.8717 19.635 20.8717 19.5105 21.385L19.1681 22.7973C19.1236 22.9805 18.9805 23.1236 18.7973 23.1681L17.385 23.5105C16.8717 23.635 16.8717 24.365 17.385 24.4895L18.7973 24.8319C18.9805 24.8764 19.1236 25.0195 19.1681 25.2027L19.5105 26.615C19.635 27.1283 20.365 27.1283 20.4895 26.615L20.8319 25.2027C20.8764 25.0195 21.0195 24.8764 21.2027 24.8319L22.615 24.4895C23.1283 24.365 23.1283 23.635 22.615 23.5105L21.2027 23.1681C21.0195 23.1236 20.8764 22.9805 20.8319 22.7973L20.4895 21.385Z" fill="url(#paint4_linear_379_376)"/>
<path d="M23 6C23 6.55228 22.5523 7 22 7C21.4477 7 21 6.55228 21 6C21 5.44772 21.4477 5 22 5C22.5523 5 23 5.44772 23 6Z" fill="url(#paint5_linear_379_376)"/>
<path d="M13 6C13 6.55228 12.5523 7 12 7C11.4477 7 11 6.55228 11 6C11 5.44772 11.4477 5 12 5C12.5523 5 13 5.44772 13 6Z" fill="url(#paint6_linear_379_376)"/>
<path d="M4 16C4 16.5523 3.55228 17 3 17C2.44772 17 2 16.5523 2 16C2 15.4477 2.44772 15 3 15C3.55228 15 4 15.4477 4 16Z" fill="url(#paint7_linear_379_376)"/>
<defs>
<linearGradient id="paint0_linear_379_376" x1="1" y1="16" x2="23" y2="16" gradientUnits="userSpaceOnUse">
<stop stop-color="#98C6F7"/>
<stop offset="1" stop-color="#EB5B92"/>
</linearGradient>
<linearGradient id="paint1_linear_379_376" x1="1" y1="16" x2="23" y2="16" gradientUnits="userSpaceOnUse">
<stop stop-color="#98C6F7"/>
<stop offset="1" stop-color="#EB5B92"/>
</linearGradient>
<linearGradient id="paint2_linear_379_376" x1="1" y1="16" x2="23" y2="16" gradientUnits="userSpaceOnUse">
<stop stop-color="#98C6F7"/>
<stop offset="1" stop-color="#EB5B92"/>
</linearGradient>
<linearGradient id="paint3_linear_379_376" x1="1" y1="16" x2="23" y2="16" gradientUnits="userSpaceOnUse">
<stop stop-color="#98C6F7"/>
<stop offset="1" stop-color="#EB5B92"/>
</linearGradient>
<linearGradient id="paint4_linear_379_376" x1="1" y1="16" x2="23" y2="16" gradientUnits="userSpaceOnUse">
<stop stop-color="#98C6F7"/>
<stop offset="1" stop-color="#EB5B92"/>
</linearGradient>
<linearGradient id="paint5_linear_379_376" x1="1" y1="16" x2="23" y2="16" gradientUnits="userSpaceOnUse">
<stop stop-color="#98C6F7"/>
<stop offset="1" stop-color="#EB5B92"/>
</linearGradient>
<linearGradient id="paint6_linear_379_376" x1="1" y1="16" x2="23" y2="16" gradientUnits="userSpaceOnUse">
<stop stop-color="#98C6F7"/>
<stop offset="1" stop-color="#EB5B92"/>
</linearGradient>
<linearGradient id="paint7_linear_379_376" x1="1" y1="16" x2="23" y2="16" gradientUnits="userSpaceOnUse">
<stop stop-color="#98C6F7"/>
<stop offset="1" stop-color="#EB5B92"/>
</linearGradient>
</defs>
</svg>
