<svg width="60" height="60" viewBox="0 0 60 60" fill="none" xmlns="http://www.w3.org/2000/svg">
<path d="M9.20161 49.2025L13.2232 53.2241C14.4932 54.4941 16.2923 55.2349 17.9856 55.2349C19.6789 55.2349 21.478 54.4941 22.748 53.2241L47.6884 28.2837L48.9584 16.2188C49.1701 14.7371 48.0059 13.4672 46.5243 13.4672C46.4185 13.4672 46.3126 13.4672 46.2068 13.4672L34.142 14.7371L9.20161 39.6776C6.55583 42.3234 6.55583 46.5567 9.20161 49.2025ZM36.4703 19.6054L43.561 18.8646L42.8202 25.9554L30.7912 38.0901L27.5104 41.3709L21.0547 34.9151L24.3355 31.6343L36.4703 19.6054ZM12.7999 43.2759L17.4564 38.5134L23.9121 44.9692L19.1497 49.6258C18.7264 50.0491 18.1973 50.155 17.9856 50.155C17.7739 50.155 17.2448 50.0491 16.8215 49.6258L12.7999 45.6042C12.1649 44.9692 12.1649 43.9109 12.7999 43.2759Z" fill="url(#paint0_linear_40016037_6287)"/>
<path d="M10.8685 3.78321C11.2833 2.07227 13.7167 2.07226 14.1315 3.7832L15.2731 8.49096C15.4212 9.10182 15.8982 9.57876 16.509 9.72689L21.2168 10.8685C22.9277 11.2833 22.9277 13.7167 21.2168 14.1315L16.509 15.2731C15.8982 15.4212 15.4212 15.8982 15.2731 16.509L14.1315 21.2168C13.7167 22.9277 11.2833 22.9277 10.8685 21.2168L9.72689 16.509C9.57876 15.8982 9.10182 15.4212 8.49096 15.2731L3.78321 14.1315C2.07227 13.7167 2.07226 11.2833 3.7832 10.8685L8.49096 9.72689C9.10182 9.57876 9.57876 9.10182 9.72689 8.49096L10.8685 3.78321Z" fill="url(#paint1_linear_40016037_6287)"/>
<path fill-rule="evenodd" clip-rule="evenodd" d="M12.5 5.60364L11.6847 8.96572C11.3589 10.3096 10.3096 11.3589 8.96572 11.6847L5.60364 12.5L8.96572 13.3153C10.3096 13.6411 11.3589 14.6904 11.6847 16.0343L12.5 19.3964L13.3153 16.0343C13.6411 14.6904 14.6904 13.6411 16.0343 13.3153L19.3964 12.5L16.0343 11.6847C14.6904 11.3589 13.6411 10.3096 13.3153 8.96572L12.5 5.60364ZM14.1315 3.7832C13.7167 2.07226 11.2833 2.07227 10.8685 3.78321L9.72689 8.49096C9.57876 9.10182 9.10182 9.57876 8.49096 9.72689L3.7832 10.8685C2.07226 11.2833 2.07227 13.7167 3.78321 14.1315L8.49096 15.2731C9.10182 15.4212 9.57876 15.8982 9.72689 16.509L10.8685 21.2168C11.2833 22.9277 13.7167 22.9277 14.1315 21.2168L15.2731 16.509C15.4212 15.8982 15.8982 15.4212 16.509 15.2731L21.2168 14.1315C22.9277 13.7167 22.9277 11.2833 21.2168 10.8685L16.509 9.72689C15.8982 9.57876 15.4212 9.10182 15.2731 8.49096L14.1315 3.7832Z" fill="url(#paint2_linear_40016037_6287)"/>
<path d="M48.7763 43.4624C49.0875 42.1792 50.9125 42.1792 51.2237 43.4624L52.0798 46.9932C52.1909 47.4514 52.5486 47.8091 53.0068 47.9202L56.5376 48.7763C57.8208 49.0875 57.8208 50.9125 56.5376 51.2237L53.0068 52.0798C52.5486 52.1909 52.1909 52.5486 52.0798 53.0068L51.2237 56.5376C50.9125 57.8208 49.0875 57.8208 48.7763 56.5376L47.9202 53.0068C47.8091 52.5486 47.4514 52.1909 46.9932 52.0798L43.4624 51.2237C42.1792 50.9125 42.1792 49.0875 43.4624 48.7763L46.9932 47.9202C47.4514 47.8091 47.8091 47.4514 47.9202 46.9932L48.7763 43.4624Z" fill="url(#paint3_linear_40016037_6287)"/>
<path fill-rule="evenodd" clip-rule="evenodd" d="M50 44.8277L49.3886 47.3493C49.1442 48.3572 48.3572 49.1442 47.3493 49.3886L44.8277 50L47.3493 50.6114C48.3572 50.8558 49.1442 51.6428 49.3886 52.6507L50 55.1723L50.6114 52.6507C50.8558 51.6428 51.6428 50.8558 52.6507 50.6114L55.1723 50L52.6507 49.3886C51.6428 49.1442 50.8558 48.3572 50.6114 47.3493L50 44.8277ZM51.2237 43.4624C50.9125 42.1792 49.0875 42.1792 48.7763 43.4624L47.9202 46.9932C47.8091 47.4514 47.4514 47.8091 46.9932 47.9202L43.4624 48.7763C42.1792 49.0875 42.1792 50.9125 43.4624 51.2237L46.9932 52.0798C47.4514 52.1909 47.8091 52.5486 47.9202 53.0068L48.7763 56.5376C49.0875 57.8208 50.9125 57.8208 51.2237 56.5376L52.0798 53.0068C52.1909 52.5486 52.5486 52.1909 53.0068 52.0798L56.5376 51.2237C57.8208 50.9125 57.8208 49.0875 56.5376 48.7763L53.0068 47.9202C52.5486 47.8091 52.1909 47.4514 52.0798 46.9932L51.2237 43.4624Z" fill="url(#paint4_linear_40016037_6287)"/>
<path d="M57.5 5C57.5 6.38071 56.3807 7.5 55 7.5C53.6193 7.5 52.5 6.38071 52.5 5C52.5 3.61929 53.6193 2.5 55 2.5C56.3807 2.5 57.5 3.61929 57.5 5Z" fill="url(#paint5_linear_40016037_6287)"/>
<path d="M32.5 5C32.5 6.38071 31.3807 7.5 30 7.5C28.6193 7.5 27.5 6.38071 27.5 5C27.5 3.61929 28.6193 2.5 30 2.5C31.3807 2.5 32.5 3.61929 32.5 5Z" fill="url(#paint6_linear_40016037_6287)"/>
<path d="M10 30C10 31.3807 8.88071 32.5 7.5 32.5C6.11929 32.5 5 31.3807 5 30C5 28.6193 6.11929 27.5 7.5 27.5C8.88071 27.5 10 28.6193 10 30Z" fill="url(#paint7_linear_40016037_6287)"/>
<defs>
<linearGradient id="paint0_linear_40016037_6287" x1="2.5" y1="30" x2="57.5" y2="30" gradientUnits="userSpaceOnUse">
<stop stop-color="#98C6F7"/>
<stop offset="1" stop-color="#EB5B92"/>
</linearGradient>
<linearGradient id="paint1_linear_40016037_6287" x1="2.5" y1="30" x2="57.5" y2="30" gradientUnits="userSpaceOnUse">
<stop stop-color="#98C6F7"/>
<stop offset="1" stop-color="#EB5B92"/>
</linearGradient>
<linearGradient id="paint2_linear_40016037_6287" x1="2.5" y1="30" x2="57.5" y2="30" gradientUnits="userSpaceOnUse">
<stop stop-color="#98C6F7"/>
<stop offset="1" stop-color="#EB5B92"/>
</linearGradient>
<linearGradient id="paint3_linear_40016037_6287" x1="2.5" y1="30" x2="57.5" y2="30" gradientUnits="userSpaceOnUse">
<stop stop-color="#98C6F7"/>
<stop offset="1" stop-color="#EB5B92"/>
</linearGradient>
<linearGradient id="paint4_linear_40016037_6287" x1="2.5" y1="30" x2="57.5" y2="30" gradientUnits="userSpaceOnUse">
<stop stop-color="#98C6F7"/>
<stop offset="1" stop-color="#EB5B92"/>
</linearGradient>
<linearGradient id="paint5_linear_40016037_6287" x1="2.5" y1="30" x2="57.5" y2="30" gradientUnits="userSpaceOnUse">
<stop stop-color="#98C6F7"/>
<stop offset="1" stop-color="#EB5B92"/>
</linearGradient>
<linearGradient id="paint6_linear_40016037_6287" x1="2.5" y1="30" x2="57.5" y2="30" gradientUnits="userSpaceOnUse">
<stop stop-color="#98C6F7"/>
<stop offset="1" stop-color="#EB5B92"/>
</linearGradient>
<linearGradient id="paint7_linear_40016037_6287" x1="2.5" y1="30" x2="57.5" y2="30" gradientUnits="userSpaceOnUse">
<stop stop-color="#98C6F7"/>
<stop offset="1" stop-color="#EB5B92"/>
</linearGradient>
</defs>
</svg>
